<svg width="102" height="38" viewBox="0 0 102 38" fill="none" xmlns="http://www.w3.org/2000/svg">
<path d="M8.608 3.428H3.76V5.804H7.732V6.872H3.76V9.932H8.608V11H2.2V2.36H8.608V3.428ZM18.6264 4.256L20.1864 5.828V11H18.6264V5.648H14.8464V11H13.2864V4.256H18.6264ZM32.0111 6.68H30.4511V5.648H26.6711V9.608H30.4511V8.036H32.0111V11H25.1111V4.256H32.0111V6.68ZM42.2758 4.256L43.8358 5.828V11H42.2758V5.648H38.4958V11H36.9358V1.4H38.4958V4.256H42.2758ZM53.4944 4.256L55.0544 5.828V11H49.7144L48.1544 9.428V8.156L50.0744 6.644H53.4944V5.684H48.9704V4.256H53.4944ZM49.7144 9.536H53.4944V8.156H49.7144V9.536ZM65.3158 4.256L66.8758 5.828V11H65.3158V5.648H61.5358V11H59.9758V4.256H65.3158ZM77.0325 5.648H73.8525V9.608H77.0325V11H73.8525L72.2925 9.428V5.648H71.2005V4.256H72.2925V1.4H73.8525V4.256H77.0325V5.648ZM86.6978 4.256L88.2578 5.828V8.48H82.9178V9.572H87.6698V11H82.9178L81.3578 9.428V5.828L82.9178 4.256H86.6978ZM82.9178 6.992H86.6978V5.684H82.9178V6.992ZM98.042 1.4H99.602V11H94.262L92.702 9.428V5.828L94.262 4.256H98.042V1.4ZM94.262 9.608H98.042V5.648H94.262V9.608Z" fill="url(#paint0_linear_369_111)"/>
<path d="M13.4 17.6H16.8V28.38L13.4 32H12.4L9.26 28.76L6.2 32H5.2L1.8 28.38V17.6H5.2V27.36L5.7 27.88L7.62 25.9V20.5H10.98V25.98L12.88 27.9L13.4 27.36V17.6ZM36.6937 20.76L40.0938 23.38V29.38L36.6937 32H31.9938L28.5938 29.38V23.38L31.9938 20.76H36.6937ZM31.9938 29.28H36.6937V23.48H31.9938V29.28ZM55.5016 20.76H60.8416V23.48H55.5016V32H52.1016V23.38L55.5016 20.76ZM75.0445 29.28H77.7045V32H75.0445L71.6445 29.38V16.02H75.0445V29.28ZM96.407 16H99.807V32H91.707L88.307 29.38V23.38L91.707 20.76H96.407V16ZM91.707 29.28H96.407V23.48H91.707V29.28Z" fill="url(#paint1_linear_369_111)"/>
<defs>
<linearGradient id="paint0_linear_369_111" x1="1" y1="7.5" x2="96.0029" y2="3.6475" gradientUnits="userSpaceOnUse">
<stop stop-color="#FCC504"/>
<stop offset="1" stop-color="#E5522D"/>
</linearGradient>
<linearGradient id="paint1_linear_369_111" x1="7.17542e-07" y1="25.5" x2="97.0026" y2="23.0926" gradientUnits="userSpaceOnUse">
<stop stop-color="#FCC504"/>
<stop offset="1" stop-color="#E5522D"/>
</linearGradient>
</defs>
</svg>
